# xmcd
#
# Track frame offsets:
#	150
#	12942
#	31945
#	49726
#	64611
#	81890
#	99768
#	117306
#	134920
#	150810
#	166177
#	181507
#	199584
#	215075
#
# Disc length: 3078 seconds
#
# Revision: 0
# Processed by: cddbd v1.5.2PL0 Copyright (c) Steve Scherf et al.
# Submitted via: audiograbber 1.83.01
#
DISCID=ab0c040e
DTITLE=Her Bright Skies - Rivals
DYEAR=2013
DGENRE=Metal
TTITLE0=Working Class Punx
TTITLE1=Up and Away
TTITLE2=Revolution
TTITLE3=Take Take Take
TTITLE4=Break
TTITLE5=Rivals
TTITLE6=Acoustic
TTITLE7=30 Seconds
TTITLE8=House In Hell
TTITLE9=Snake
TTITLE10=Marvel
TTITLE11=Bonnie and Clyde (The Revolution)
TTITLE12=Up and Away
TTITLE13=Rivals
EXTD=
EXTT0=
EXTT1=
EXTT2=
EXTT3=
EXTT4=
EXTT5=
EXTT6=
EXTT7=
EXTT8=
EXTT9=
EXTT10=
EXTT11=
EXTT12=
EXTT13=
PLAYORDER=
